# xmcd
#
# Track frame offsets:
#	150
#	22139
#	38257
#	50808
#	69959
#	85010
#	101203
#	111884
#	129349
#	150781
#	166132
#	180723
#	193582
#	210239
#	226404
#	242798
#	259045
#	273367
#	288737
#	299486
#
# Disc length: 4196 seconds
# Revision: 0
# Processed by: cddbd v1.5.2PL0 Copyright (c) Steve Scherf et al.
# Submitted via: dBpowerAMP V12.0
#
DISCID=15106214
DTITLE=Various Artist - Kross Kut Records Vol 4
DYEAR=2009
DGENRE=Country
TTITLE0=Glenn Jones - Circle of Sawdust
TTITLE1=Jamie Davis - Cowboy Rides Away
TTITLE2=Charley Boyter - Twilight Zone
TTITLE3=Neil Buttsworth - Tennesseee Waltz
TTITLE4=Grant Hart - The Windmill
TTITLE5=Johnn Greenwood - The Tragedy of Burke and Wills
TTITLE6=Lindsay Waddington - The Girlfriend Song
TTITLE7=Ken (Chainsaw) Lindsay - Victoria The Place to Be
TTITLE8=Lloyd Back - Is it Too Much
TTITLE9=Royce Everingham - Truckies Dream
TTITLE10=Trent Holder - Cattlemen From The High Plains
TTITLE11=Felicia Machin - City Girl
TTITLE12=Dell Klupfell - Traveller's Prayer
TTITLE13=Lex K - Tribute to a Writer Ernie Constance
TTITLE14=Mike Casey - Twinkle Twinkle Lucky Star
TTITLE15=John Battle - Joe Blake
TTITLE16=Barry Glasby - The Darling River Bed
TTITLE17=Michelle Walker - Just Feel
TTITLE18=Dell Klupfell - Martin and The Coys
TTITLE19=Peter Salata - Don't Shake My Tree
EXTD=
EXTT0=
EXTT1=
EXTT2=
EXTT3=
EXTT4=
EXTT5=
EXTT6=
EXTT7=
EXTT8=
EXTT9=
EXTT10=
EXTT11=
EXTT12=
EXTT13=
EXTT14=
EXTT15=
EXTT16=
EXTT17=
EXTT18=
EXTT19=
PLAYORDER=
